<mxfile host="app.diagrams.net" modified="2023-05-16T14:18:22.885Z" agent="Mozilla/5.0 (X11; Ubuntu; Linux x86_64; rv:109.0) Gecko/20100101 Firefox/112.0" etag="rL1sXG1f7zbTkCN46HL_" version="21.3.2" type="device">
  <diagram name="Page-1" id="tpmm5qy2FPJMLZr56j2t">
    <mxGraphModel dx="1434" dy="779" grid="1" gridSize="10" guides="1" tooltips="1" connect="1" arrows="1" fold="1" page="1" pageScale="1" pageWidth="850" pageHeight="1100" math="0" shadow="0">
      <root>
        <mxCell id="0" />
        <mxCell id="1" parent="0" />
        <mxCell id="yN_6NNA6e4bb_lLPipn2-1" value="recursiveLayer (x6)" style="rounded=0;whiteSpace=wrap;html=1;" parent="1" vertex="1">
          <mxGeometry x="80" y="320" width="240" height="40" as="geometry" />
        </mxCell>
        <mxCell id="yN_6NNA6e4bb_lLPipn2-4" style="edgeStyle=orthogonalEdgeStyle;rounded=0;orthogonalLoop=1;jettySize=auto;html=1;exitX=0.5;exitY=0;exitDx=0;exitDy=0;entryX=0.75;entryY=1;entryDx=0;entryDy=0;curved=1;" parent="1" source="yN_6NNA6e4bb_lLPipn2-1" target="yN_6NNA6e4bb_lLPipn2-1" edge="1">
          <mxGeometry relative="1" as="geometry" />
        </mxCell>
        <mxCell id="yN_6NNA6e4bb_lLPipn2-7" value="&lt;font style=&quot;font-size: 36px;&quot;&gt;Recursive Layers&lt;/font&gt;" style="text;html=1;strokeColor=none;fillColor=none;align=center;verticalAlign=middle;whiteSpace=wrap;rounded=0;" parent="1" vertex="1">
          <mxGeometry x="40" y="70" width="410" height="30" as="geometry" />
        </mxCell>
        <mxCell id="yN_6NNA6e4bb_lLPipn2-18" value="transformer head" style="rounded=0;whiteSpace=wrap;html=1;fillColor=#d5e8d4;strokeColor=#82b366;verticalAlign=top;" parent="1" vertex="1">
          <mxGeometry x="40" y="160" width="360" height="40" as="geometry" />
        </mxCell>
        <mxCell id="yN_6NNA6e4bb_lLPipn2-21" value="transformer input" style="rounded=0;whiteSpace=wrap;html=1;fillColor=#d5e8d4;strokeColor=#82b366;verticalAlign=top;" parent="1" vertex="1">
          <mxGeometry x="40" y="520" width="360" height="40" as="geometry" />
        </mxCell>
        <mxCell id="RVD_boX8sH5gL-I8M7GE-5" value="layer (l3)" style="rounded=0;whiteSpace=wrap;html=1;" vertex="1" parent="1">
          <mxGeometry x="480" y="360" width="240" height="40" as="geometry" />
        </mxCell>
        <mxCell id="RVD_boX8sH5gL-I8M7GE-9" value="transformer head" style="rounded=0;whiteSpace=wrap;html=1;fillColor=#d5e8d4;strokeColor=#82b366;verticalAlign=top;" vertex="1" parent="1">
          <mxGeometry x="440" y="160" width="360" height="40" as="geometry" />
        </mxCell>
        <mxCell id="RVD_boX8sH5gL-I8M7GE-10" value="transformer input" style="rounded=0;whiteSpace=wrap;html=1;fillColor=#d5e8d4;strokeColor=#82b366;verticalAlign=top;" vertex="1" parent="1">
          <mxGeometry x="440" y="520" width="360" height="40" as="geometry" />
        </mxCell>
        <mxCell id="RVD_boX8sH5gL-I8M7GE-11" value="layer (l2)" style="rounded=0;whiteSpace=wrap;html=1;" vertex="1" parent="1">
          <mxGeometry x="480" y="400" width="240" height="40" as="geometry" />
        </mxCell>
        <mxCell id="RVD_boX8sH5gL-I8M7GE-12" value="layer (l1)" style="rounded=0;whiteSpace=wrap;html=1;" vertex="1" parent="1">
          <mxGeometry x="480" y="440" width="240" height="40" as="geometry" />
        </mxCell>
        <mxCell id="RVD_boX8sH5gL-I8M7GE-13" value="layer (l6)" style="rounded=0;whiteSpace=wrap;html=1;" vertex="1" parent="1">
          <mxGeometry x="480" y="240" width="240" height="40" as="geometry" />
        </mxCell>
        <mxCell id="RVD_boX8sH5gL-I8M7GE-14" value="layer (l5)" style="rounded=0;whiteSpace=wrap;html=1;" vertex="1" parent="1">
          <mxGeometry x="480" y="280" width="240" height="40" as="geometry" />
        </mxCell>
        <mxCell id="RVD_boX8sH5gL-I8M7GE-15" value="layer (l4)" style="rounded=0;whiteSpace=wrap;html=1;" vertex="1" parent="1">
          <mxGeometry x="480" y="320" width="240" height="40" as="geometry" />
        </mxCell>
      </root>
    </mxGraphModel>
  </diagram>
</mxfile>
